<svg xmlns="http://www.w3.org/2000/svg" viewBox="0 0 207 207"><defs><style>.cls-1{fill:#fff;}.cls-2{fill:#52ac62;}</style></defs><g id="Слой_2" data-name="Слой 2"><g id="Слой_1-2" data-name="Слой 1"><circle class="cls-1" cx="103.5" cy="103.5" r="103.5"/><path class="cls-2" d="M128.67,74h0a5.25,5.25,0,0,0,6.94,1.75h0a4.62,4.62,0,0,0,1.86-6.52h0Z"/><path class="cls-2" d="M138,86H78.09v0C78.09,72,90.14,60.7,105,60.7A27.19,27.19,0,0,1,128.68,74l8.75-4.74a37.42,37.42,0,0,0-32.41-18C84.59,51.25,68,66.8,68,86H68a11,11,0,0,0-11,11v43.61a11,11,0,0,0,11,11H138a11,11,0,0,0,11-11V96.93A11,11,0,0,0,138,86Z"/></g></g></svg>