<svg xmlns="http://www.w3.org/2000/svg" viewBox="0 0 765 765"><defs><style>.cls-1{fill:#b9c3dc;}.cls-2{fill:#fff;}.cls-3{fill:#d24a43;}.cls-4{fill:#52ac62;}</style></defs><g id="Слой_2" data-name="Слой 2"><g id="Слой_1-2" data-name="Слой 1"><rect class="cls-1" width="765" height="765"/><path class="cls-2" d="M548.5,290a290.45,290.45,0,0,0-64.44,7.21A289.76,289.76,0,0,0,438.75,1H0V378.67a289.88,289.88,0,0,0,280.94,90.12A289.76,289.76,0,0,0,326.25,765H765V387.33A288.77,288.77,0,0,0,548.5,290Z"/><circle class="cls-2" cx="182" cy="678" r="62"/><circle class="cls-2" cx="536" cy="57" r="24"/><circle class="cls-2" cx="686.5" cy="172.5" r="47.5"/><path class="cls-3" d="M643.28,524v-.89c0-46.45-40.77-84.11-91-84.11s-91,37.66-91,84.11V524a26.58,26.58,0,0,0-20.34,25.83V655.5a26.56,26.56,0,0,0,26.57,26.57H637.27a26.57,26.57,0,0,0,26.57-26.57V549.83A26.58,26.58,0,0,0,643.28,524Zm-91.09-62.05c36.57,0,66.24,27.34,66.24,61.11v.24H486V523C486,489.27,515.65,461.93,552.19,461.93Z"/><path class="cls-4" d="M283.8,126.74h0A12.68,12.68,0,0,0,300.56,131h0a11.15,11.15,0,0,0,4.91-15q-.2-.37-.42-.75h0Z"/><path class="cls-4" d="M306.33,155.73H161.62c0-33.82,29.11-61.11,65-61.11a65.68,65.68,0,0,1,57.2,32.12L305,115.29a90.41,90.41,0,0,0-78.29-43.47c-49.35,0-89.42,37.53-89.42,83.91h0a26.58,26.58,0,0,0-26.57,26.57V287.64a26.58,26.58,0,0,0,26.57,26.57H306.33a26.57,26.57,0,0,0,26.57-26.57V182.13A26.57,26.57,0,0,0,306.33,155.73Z"/></g></g></svg>