<svg xmlns="http://www.w3.org/2000/svg" viewBox="0 0 206 206"><defs><style>.cls-1{fill:#566790;}.cls-2{fill:#414e6d;}.cls-3{fill:#99b7ff;}</style></defs><g id="Слой_2" data-name="Слой 2"><g id="Слой_1-2" data-name="Слой 1"><circle class="cls-1" cx="103" cy="103" r="103"/><path class="cls-2" d="M204.69,117,130.15,55.34h-47l-21,111,45.22,39.33A103,103,0,0,0,204.69,117Z"/><path class="cls-3" d="M135.48,94.77H62.39v72h81v-72h-7.91Zm-24.59,49h-16l4-11.91a9.5,9.5,0,1,1,8.06,0Z"/><path class="cls-3" d="M71.67,81.38l12.66,4.05,6-18.73h0a20.49,20.49,0,0,1,23.84-10.18,20.48,20.48,0,0,1,13.49,22.14h0l-6,18.73,12.66,4.06,6-18.73h0a33,33,0,0,0-21.2-41.44h0l-.08,0-.08,0h0A33,33,0,0,0,77.65,62.64h0Z"/></g></g></svg>