<svg xmlns="http://www.w3.org/2000/svg" viewBox="0 0 206 206"><defs><style>.cls-1{fill:#566790;}.cls-2{fill:#414e6d;}.cls-3{fill:#99b7ff;}</style></defs><g id="Слой_2" data-name="Слой 2"><g id="Слой_1-2" data-name="Слой 1"><circle class="cls-1" cx="103" cy="103" r="103"/><path class="cls-2" d="M204.69,117,130.15,55.34h-47l-21,111,45.22,39.33A103,103,0,0,0,204.69,117Z"/><path class="cls-3" d="M135.59,94.67V74.33h0a33,33,0,0,0-32.83-33h-.17a33,33,0,0,0-32.83,33h0V94.67H62.5v72h81v-72ZM83.1,74.33h0a20.48,20.48,0,0,1,19.59-17,20.48,20.48,0,0,1,19.6,17h0V94.67H83.1ZM111,143.67H95l4-11.91a9.5,9.5,0,1,1,8.06,0Z"/></g></g></svg>