<svg xmlns="http://www.w3.org/2000/svg" viewBox="0 0 207 207"><defs><style>.cls-1{fill:#fff;}.cls-2{fill:#d24a43;}</style></defs><g id="Слой_2" data-name="Слой 2"><g id="Слой_1-2" data-name="Слой 1"><circle class="cls-1" cx="103.5" cy="103.5" r="103.5"/><path class="cls-2" d="M141.29,85.69c0-.12,0-.24,0-.37,0-19.23-16.88-34.82-37.69-34.82S65.92,66.09,65.92,85.32v.38A11,11,0,0,0,57.5,96.39v43.75a11,11,0,0,0,11,11h70.3a11,11,0,0,0,11-11V96.39A11,11,0,0,0,141.29,85.69ZM103.58,60C118.72,60,131,71.32,131,85.3c0,0,0,.07,0,.1H76.17v-.1C76.17,71.32,88.45,60,103.58,60Z"/></g></g></svg>